<svg height="423pt" viewBox="-95 0 423 423.25333" width="423pt" xmlns="http://www.w3.org/2000/svg"><path d="m225.40625 375.464844c0-22.621094-48.902344-40.957032-109.226562-40.957032-60.324219 0-109.226563 18.335938-109.226563 40.957032 0 22.625 48.902344 40.960937 109.226563 40.960937 60.324218 0 109.226562-18.335937 109.226562-40.960937zm0 0" fill="#ddd"/><path d="m116.179688 423.253906c-56.261719 0-116.054688-16.746094-116.054688-47.789062 0-31.039063 59.792969-47.785156 116.054688-47.785156 56.261718 0 116.054687 16.746093 116.054687 47.785156 0 31.042968-59.792969 47.789062-116.054687 47.789062zm0-81.921875c-58.605469 0-102.398438 18.023438-102.398438 34.132813 0 16.113281 43.792969 34.136718 102.398438 34.136718 58.605468 0 102.398437-18.023437 102.398437-34.136718 0-16.109375-43.792969-34.132813-102.398437-34.132813zm0 0"/><path d="m177.621094 368.640625c0-11.3125-27.507813-20.480469-61.441406-20.480469-33.933594 0-61.441407 9.167969-61.441407 20.480469 0 11.308594 27.507813 20.480469 61.441407 20.480469 33.933593 0 61.441406-9.171875 61.441406-20.480469zm0 0" fill="#288eea"/><path d="m116.179688 395.945312c-32.878907 0-68.265626-8.546874-68.265626-27.304687 0-18.761719 35.386719-27.308594 68.265626-27.308594 32.882812 0 68.265624 8.546875 68.265624 27.308594 0 18.757813-35.382812 27.304687-68.265624 27.304687zm0-40.957031c-35.832032 0-54.613282 10.140625-54.613282 13.652344s18.78125 13.652344 54.613282 13.652344c35.832031 0 54.613281-10.140625 54.613281-13.652344s-18.78125-13.652344-54.613281-13.652344zm0 0"/><path d="m127.289062 109.226562h-22.21875c-39.105468 0-70.808593 31.703126-70.808593 70.808594v93.03125h40.957031v95.574219h81.921875v-95.574219h40.960937v-93.03125c0-39.105468-31.703124-70.808594-70.8125-70.808594zm0 0" fill="#ee5281"/><path d="m157.140625 375.464844h-81.921875c-3.773438 0-6.824219-3.054688-6.824219-6.824219v-88.746094h-34.132812c-3.773438 0-6.828125-3.058593-6.828125-6.828125v-93.03125c0-42.808594 34.824218-77.636718 77.632812-77.636718h22.226563c42.808593 0 77.632812 34.828124 77.632812 77.636718v93.03125c0 3.769532-3.050781 6.828125-6.824219 6.828125h-34.136718v88.746094c0 3.769531-3.050782 6.824219-6.824219 6.824219zm-75.09375-13.652344h68.265625v-88.746094c0-3.769531 3.054688-6.828125 6.828125-6.828125h34.132813v-86.203125c0-35.277344-28.699219-63.980468-63.980469-63.980468h-22.226563c-35.28125 0-63.980468 28.703124-63.980468 63.980468v86.203125h34.132812c3.773438 0 6.828125 3.058594 6.828125 6.828125zm0 0"/><path d="m170.792969 61.441406c0 30.160156-24.449219 54.613282-54.613281 54.613282-30.160157 0-54.613282-24.453126-54.613282-54.613282 0-30.164062 24.453125-54.613281 54.613282-54.613281 30.164062 0 54.613281 24.449219 54.613281 54.613281zm0 0" fill="#ee5281"/><path d="m116.179688 122.878906c-33.878907 0-61.441407-27.5625-61.441407-61.4375 0-33.878906 27.5625-61.441406 61.441407-61.441406 33.882812 0 61.441406 27.5625 61.441406 61.441406 0 33.875-27.558594 61.4375-61.441406 61.4375zm0-109.226562c-26.347657 0-47.785157 21.4375-47.785157 47.789062 0 26.347656 21.4375 47.785156 47.785157 47.785156 26.347656 0 47.785156-21.4375 47.785156-47.785156 0-26.351562-21.4375-47.789062-47.785156-47.789062zm0 0"/><path d="m157.140625 314.027344c-3.773437 0-6.828125-3.058594-6.828125-6.828125v-68.265625c0-3.769532 3.054688-6.828125 6.828125-6.828125s6.824219 3.058593 6.824219 6.828125v68.265625c0 3.769531-3.050782 6.828125-6.824219 6.828125zm0 0"/><path d="m75.21875 327.679688c-3.773438 0-6.824219-3.054688-6.824219-6.828126v-81.917968c0-3.769532 3.050781-6.828125 6.824219-6.828125s6.828125 3.058593 6.828125 6.828125v81.917968c0 3.773438-3.054687 6.828126-6.828125 6.828126zm0 0"/></svg>